<?xml version="1.0" encoding="UTF-8" ?>
<!DOCTYPE svg PUBLIC "-//W3C//DTD SVG 1.1//EN" "http://www.w3.org/Graphics/SVG/1.1/DTD/svg11.dtd">
<svg width="136" height="90" xmlns="http://www.w3.org/2000/svg">
 <g>
  <g id="#fafafaff">
   <path fill="#ffffff" d="m0,0l136,0l0,90l-136,0l0,-90m18.790001,35.709999c-1.140001,12.73 -0.200001,25.690002 -0.440001,38.510002c9.01,-6.169998 17.390001,-13.23 25.800001,-20.170002c-4.560001,-5.450001 -10.150002,-9.889999 -14.990002,-15.07c13.299999,9.560001 25.740002,20.27 38.880001,30.049999c13.159996,-9.699997 25.549995,-20.41 38.75,-30.059998c-4.57,5.379997 -10.200005,9.719997 -14.900002,14.989998c8.480003,6.830002 16.900002,13.770004 25.739998,20.139999c0.060013,-12.889999 0.18,-25.789997 -0.049995,-38.68c-8.260002,-6.379997 -16.330002,-12.989998 -24.610001,-19.349998c-8.550003,6.18 -16.360001,13.33 -24.970001,19.43c-8.610001,-6.1 -16.41,-13.25 -24.98,-19.42c-8.040001,6.57 -16.73,12.48 -24.23,19.629999z" id="svg_1"/>
  </g>
  <g id="#77787c"/>
 </g>
</svg>